# xmcd
#
# Track frame offsets:
#	150
#	14022
#	26247
#	38387
#	54402
#	70560
#	87127
#	104012
#
# Disc length: 1570
#
# Revision: 2
# Processed by: cddbd v1.5.1PL0 Copyright (c) Steve Scherf et al.
# Submitted via: EasyCDDAExtractor 5.0.7
# Normalized: r1:DSETVAR1
#
DISCID=5e062008
DTITLE=Various Artist - Shift Gears '98 Volume 1
DYEAR=1998
DGENRE=Country
TTITLE0=Patty Loveless - High On Love
TTITLE1=Joe Diffie - Texas Size Heartache
TTITLE2=Tammy Wynette - Stand By Your Man
TTITLE3=Ty Herndon - It Must Be Love
TTITLE4=The Kinleys - Just Between You And Me
TTITLE5=Collin Raye - I Can Still Feel You
TTITLE6=Dixie Chicks - Wide Open Spaces
TTITLE7=John Denver - Country Roads (Live)
EXTD=YEAR: 1998 ID3G: 2
EXTT0=
EXTT1=
EXTT2=
EXTT3=
EXTT4=
EXTT5=
EXTT6=
EXTT7=
PLAYORDER=
